/vscmnt/brussel_pixiu_data/_data_brussel/112/vsc11236/PredSimResults/SUBJ04_Dhondt2024_3seg/weighted-LRposFixed/worker_03.mot
version=1
nRows=4
nColumns=124
inDegrees=yes
endheader
                time	         pelvis_tilt	         pelvis_list	     pelvis_rotation	           pelvis_tx	           pelvis_ty	           pelvis_tz	       hip_flexion_r	     hip_adduction_r	      hip_rotation_r	        knee_angle_r	       ankle_angle_r	    subtalar_angle_r	         mtp_angle_r	       hip_flexion_l	     hip_adduction_l	      hip_rotation_l	        knee_angle_l	       ankle_angle_l	    subtalar_angle_l	         mtp_angle_l	    lumbar_extension	      lumbar_bending	     lumbar_rotation	          arm_flex_r	           arm_add_r	           arm_rot_r	        elbow_flex_r	          arm_flex_l	           arm_add_l	           arm_rot_l	        elbow_flex_l	glut_med1_r/activation	glut_med2_r/activation	glut_med3_r/activation	glut_min1_r/activation	glut_min2_r/activation	glut_min3_r/activation	semimem_r/activation	semiten_r/activation	bifemlh_r/activation	bifemsh_r/activation	    sar_r/activation	add_long_r/activation	add_brev_r/activation	add_mag1_r/activation	add_mag2_r/activation	add_mag3_r/activation	    tfl_r/activation	   pect_r/activation	   grac_r/activation	glut_max1_r/activation	glut_max2_r/activation	glut_max3_r/activation	iliacus_r/activation	  psoas_r/activation	quad_fem_r/activation	    gem_r/activation	   peri_r/activation	rect_fem_r/activation	vas_med_r/activation	vas_int_r/activation	vas_lat_r/activation	med_gas_r/activation	lat_gas_r/activation	 soleus_r/activation	tib_post_r/activation	flex_dig_r/activation	flex_hal_r/activation	tib_ant_r/activation	per_brev_r/activation	per_long_r/activation	per_tert_r/activation	ext_dig_r/activation	ext_hal_r/activation	glut_med1_l/activation	glut_med2_l/activation	glut_med3_l/activation	glut_min1_l/activation	glut_min2_l/activation	glut_min3_l/activation	semimem_l/activation	semiten_l/activation	bifemlh_l/activation	bifemsh_l/activation	    sar_l/activation	add_long_l/activation	add_brev_l/activation	add_mag1_l/activation	add_mag2_l/activation	add_mag3_l/activation	    tfl_l/activation	   pect_l/activation	   grac_l/activation	glut_max1_l/activation	glut_max2_l/activation	glut_max3_l/activation	iliacus_l/activation	  psoas_l/activation	quad_fem_l/activation	    gem_l/activation	   peri_l/activation	rect_fem_l/activation	vas_med_l/activation	vas_int_l/activation	vas_lat_l/activation	med_gas_l/activation	lat_gas_l/activation	 soleus_l/activation	tib_post_l/activation	flex_dig_l/activation	flex_hal_l/activation	tib_ant_l/activation	per_brev_l/activation	per_long_l/activation	per_tert_l/activation	ext_dig_l/activation	ext_hal_l/activation	 ercspn_r/activation	 ercspn_l/activation	 intobl_r/activation	 intobl_l/activation	 extobl_r/activation	 extobl_l/activation	
          0.67330337	         -2.92500348	          0.38942463	         -1.21875866	          0.57230786	          0.87402219	          0.00196005	        -13.19553197	          3.82656384	         13.61450989	         -6.29411233	          9.37501422	         -1.49505158	         12.52015917	         25.79349479	          3.58635773	          7.74019650	         -6.46154990	          2.73280143	         -4.82747112	          0.20160261	         -3.96852460	          0.74311515	          1.22520495	          2.41804822	        -13.51198102	         19.37287488	         37.03870606	         -1.69134884	        -13.45094012	         16.71108464	         22.13028178	          0.42160440	          0.21642872	          0.11038671	          0.35237958	          0.35448108	          0.24856936	          0.01223172	          0.01000239	          0.01000174	          0.04958582	          0.12191235	          0.01000010	          0.01000016	          0.01000050	          0.01000187	          0.01000097	          0.34751674	          0.01000056	          0.01000067	          0.03374420	          0.02308216	          0.01000168	          0.24581247	          0.34901600	          0.01000046	          0.02245838	          0.10954325	          0.13184419	          0.01000033	          0.01000040	          0.01000034	          0.40354598	          0.43647728	          0.37969490	          0.21513682	          0.24416125	          0.30668679	          0.01250000	          0.10771129	          0.19092442	          0.01499470	          0.01501906	          0.01412134	          0.03244289	          0.01174704	          0.01000025	          0.01499258	          0.01499119	          0.01000108	          0.01224454	          0.04711485	          0.05448517	          0.01000021	          0.01000021	          0.13654466	          0.19034647	          0.13461858	          0.14977287	          0.08587850	          0.01000049	          0.02461331	          0.04382869	          0.01001163	          0.01499142	          0.03981642	          0.01718447	          0.01521971	          0.01246137	          0.01000073	          0.01000018	          0.01000017	          0.08129662	          0.08414774	          0.06890702	          0.01000005	          0.01000011	          0.01000010	          0.01000064	          0.01000111	          0.01000163	          0.20651382	          0.16194652	          0.10312849	          0.13972031	          0.32492336	          0.03372381	          0.01000000	          0.01499248	          0.01000003	          0.05001541	          0.01000005	          0.07628327	
          0.68676943	         -2.92973851	          0.62110552	         -1.33746648	          0.58622266	          0.87358275	          0.00175942	        -13.40063801	          3.65370818	         13.23122640	         -7.61035002	          9.07809147	         -1.12554027	         13.61930820	         24.81537804	          4.02416678	          7.95730136	         -5.43541738	          1.67123007	         -5.25670585	          0.21623415	         -3.83568015	          0.28063736	          1.30895467	          1.99692731	        -13.53403495	         19.38620894	         39.33559366	         -2.41801735	        -13.45500698	         16.28697305	         20.67909650	          0.44720684	          0.17675823	          0.09015325	          0.30868342	          0.32138624	          0.20300773	          0.01000157	          0.01000039	          0.01000032	          0.04049696	          0.10763377	          0.01000048	          0.01000039	          0.01000104	          0.01000356	          0.01000086	          0.33252979	          0.01000362	          0.01000506	          0.02755960	          0.01885234	          0.01000232	          0.22438296	          0.28504542	          0.01835415	          0.01837708	          0.08946441	          0.14228703	          0.01000071	          0.01000086	          0.01000070	          0.37291902	          0.40524290	          0.36643103	          0.21367306	          0.25150153	          0.30946454	          0.01020880	          0.08796825	          0.18032594	          0.01224624	          0.01226612	          0.01153299	          0.02649625	          0.01000311	          0.01000031	          0.01224464	          0.01224415	          0.01000133	          0.01000019	          0.03847894	          0.04449830	          0.01000007	          0.01000029	          0.11151740	          0.19396521	          0.16469080	          0.13676951	          0.07013763	          0.01000037	          0.03370529	          0.03579534	          0.01000214	          0.01224404	          0.05610159	          0.01403465	          0.01243002	          0.08867371	          0.01000091	          0.01000076	          0.01499294	          0.07472219	          0.07161389	          0.06223053	          0.01000001	          0.01000003	          0.01000000	          0.01000005	          0.01000035	          0.01000027	          0.20836802	          0.14392804	          0.09455283	          0.16442401	          0.34173186	          0.04225841	          0.01000015	          0.01224442	          0.01499233	          0.04084778	          0.01000013	          0.06230083	
          0.70023550	         -2.92983130	          0.86534835	         -1.44883182	          0.60050894	          0.87323020	          0.00156140	        -13.55416615	          3.46368556	         12.83001913	         -9.04027487	          8.62668352	         -0.71318015	         14.80340565	         23.81466232	          4.42951706	          8.19838492	         -4.98849273	          0.28922763	         -5.67464624	          0.22651939	         -3.68205423	         -0.20240895	          1.38533912	          1.48833595	        -13.55375396	         19.38442511	         41.65220478	         -3.17461155	        -13.46961098	         16.03538988	         19.22941010	          0.40326051	          0.14435911	          0.07362850	          0.28535909	          0.26247764	          0.16579722	          0.01000732	          0.01000053	          0.01000038	          0.03307405	          0.08790522	          0.01000028	          0.01000027	          0.01000071	          0.01000237	          0.01000080	          0.27157949	          0.01000175	          0.01000130	          0.02250832	          0.01539744	          0.01000101	          0.20403635	          0.24367089	          0.01499008	          0.01500928	          0.07306593	          0.17142958	          0.01000032	          0.01000039	          0.01000032	          0.33849193	          0.36790376	          0.34700916	          0.20314010	          0.24525694	          0.29953432	          0.01000001	          0.07184406	          0.17958192	          0.01000159	          0.01001780	          0.01000012	          0.02163959	          0.01000004	          0.01000011	          0.01000030	          0.01000012	          0.01000010	          0.03610335	          0.05249560	          0.03634198	          0.02752194	          0.01079231	          0.09107705	          0.15841333	          0.13450426	          0.11170046	          0.05728171	          0.01000027	          0.02754195	          0.10490570	          0.01000012	          0.01000015	          0.04581841	          0.01835692	          0.01835708	          0.11953852	          0.01839816	          0.01000029	          0.01224481	          0.06102592	          0.05848737	          0.05082394	          0.01545917	          0.01832559	          0.01224456	          0.01499235	          0.01225955	          0.01499162	          0.17017496	          0.12962791	          0.09828892	          0.13428576	          0.36602821	          0.03451269	          0.01000017	          0.01000007	          0.01224436	          0.03336055	          0.01430732	          0.05088131	
          0.71370157	         -2.92654713	          1.12839016	         -1.54764390	          0.61507367	          0.87299049	          0.00137546	        -13.64113608	          3.25029065	         12.41298096	        -10.59095817	          8.00753158	         -0.25356697	         16.05264753	         22.77806980	          4.77837486	          8.46661682	         -4.65362335	         -1.31635423	         -6.08453245	          0.22564868	         -3.51425907	         -0.71296064	          1.45178284	          0.90292321	        -13.56630959	         19.36082822	         43.98299307	         -3.93464491	        -13.49592940	         16.00421731	         17.76110357	          0.40784793	          0.11789863	          0.06013267	          0.37570110	          0.21436664	          0.13540722	          0.01000181	          0.01000025	          0.01000026	          0.02701173	          0.07179266	          0.01000012	          0.01000014	          0.01000040	          0.01000137	          0.01000052	          0.22180024	          0.01000070	          0.01000067	          0.01838286	          0.01257677	          0.01000150	          0.16989170	          0.23551155	          0.01224327	          0.01225862	          0.05967322	          0.14000768	          0.01000063	          0.01000067	          0.01000047	          0.29832278	          0.32839125	          0.32179301	          0.18691663	          0.22011130	          0.27776247	          0.01000003	          0.05867543	          0.18795092	          0.01000010	          0.01000003	          0.01000020	          0.17598018	          0.16490470	          0.15805594	          0.03709357	          0.01000162	          0.12761986	          0.02948591	          0.04405869	          0.02968098	          0.02247733	          0.01003301	          0.07438298	          0.12937678	          0.10985023	          0.09122632	          0.04678229	          0.01000086	          0.02249386	          0.08567695	          0.01000055	          0.01000032	          0.03742015	          0.01499219	          0.01499232	          0.09762761	          0.01502620	          0.07222406	          0.01000042	          0.04984016	          0.04776694	          0.04150817	          0.01262557	          0.01496659	          0.01000018	          0.01224432	          0.01001252	          0.01224381	          0.29973857	          0.18546468	          0.10041956	          0.34811722	          0.44766940	          0.02818690	          0.01389627	          0.01430028	          0.01000002	          0.02752216	          0.01168487	          0.04155495	
